# xmcd
#
# Track frame offsets:
#  150
#  20724
#  38947
#  52556
#  74552
#  98931
#  113988
#  145430
#
# Disc length: 2334 seconds
#
# Revision: 0
# Processed by: cddbd v1.5.1PL0 Copyright (c) Steve Scherf et al.
# Submitted via: Collectorz.com_Music_Collector 6.9
#
DISCID=71091c08
DTITLE=MT Leon - MT Leon
DYEAR=2004
DGENRE=Blues
TTITLE0=Back Door Man
TTITLE1=I Think I'm Better Off With The Blues
TTITLE2=Farther On Up The Road
TTITLE3=I Smell Trouble
TTITLE4=I'm A King Bee
TTITLE5=I'll Play The Blues For You
TTITLE6=You've Got To Love Her With A Feelin'
TTITLE7=Blues Jelly
EXTD=
EXTT0=
EXTT1=
EXTT2=
EXTT3=
EXTT4=
EXTT5=
EXTT6=
EXTT7=
PLAYORDER=
